<svg xmlns="http://www.w3.org/2000/svg" viewBox="0 0 171 56" width="171" height="56" role="img" aria-label="Village Market">
  <rect width="56" height="56" rx="16" fill="#F7F5EF"/>
  <g fill="none" stroke="#6E8F72" stroke-width="2.4" stroke-linecap="round" stroke-linejoin="round">
    <path d="M13 24 17 16h19"/>
    <path d="M13 24q3.75 4.5 7.5 0t7.5 0 7.5 0 7.5 0"/>
    <path d="M16 27v15h24V27"/>
    <path d="M24.5 42v-8h7v8"/>
    <path d="M43 24 40 17"/>
  </g>
  <path d="M38.5 17c0-6.5 5-10 11.5-10 0 6.5-4.5 10.5-11.5 10z" fill="#6E8F72"/>
  <path d="M39.5 16 46 10" stroke="#F7F5EF" stroke-width="1.4" stroke-linecap="round"/>
  <path fill="#F7F5EF" d="M75.05 32L68.61 10.83L73.51 10.83L78.61 28.69L77.51 28.14L80.47 28.14L79.31 28.69L84.04 10.83L88.79 10.83L82.79 32ZM91.31 32L91.31 16.11L95.95 16.11L95.95 32ZM89.19 19.53L89.19 16.11L95.95 16.11L95.95 19.53ZM93.11 14.54Q91.8 14.54 91.18 13.86Q90.56 13.18 90.56 12.13Q90.56 11.06 91.18 10.38Q91.8 9.7 93.11 9.7Q94.41 9.7 95.04 10.38Q95.66 11.06 95.66 12.13Q95.66 13.18 95.04 13.86Q94.41 14.54 93.11 14.54ZM99.83 32L99.83 10.83L104.5 10.83L104.5 32ZM97.95 14.25L97.95 10.83L104.5 10.83L104.5 14.25ZM108.35 32L108.35 10.83L113.02 10.83L113.02 32ZM106.47 14.25L106.47 10.83L113.02 10.83L113.02 14.25ZM126.27 32L126.27 27.3L125.48 27.3L125.48 22.2Q125.48 20.98 124.9 20.37Q124.32 19.76 123.05 19.76Q122.41 19.76 121.37 19.79Q120.32 19.82 119.22 19.88Q118.12 19.94 117.22 19.99L117.22 16.08Q117.89 16.02 118.79 15.96Q119.68 15.9 120.64 15.88Q121.6 15.85 122.44 15.85Q124.88 15.85 126.54 16.54Q128.21 17.24 129.08 18.65Q129.95 20.05 129.95 22.26L129.95 32ZM121.19 32.41Q119.48 32.41 118.19 31.8Q116.9 31.19 116.18 30.04Q115.45 28.9 115.45 27.3Q115.45 25.56 116.35 24.45Q117.25 23.33 118.87 22.79Q120.5 22.26 122.61 22.26L126.01 22.26L126.01 24.84L122.59 24.84Q121.37 24.84 120.71 25.43Q120.06 26.03 120.06 27.04Q120.06 28 120.71 28.59Q121.37 29.19 122.59 29.19Q123.37 29.19 123.99 28.91Q124.62 28.64 125.02 27.97Q125.43 27.3 125.48 26.11L126.59 27.27Q126.44 28.93 125.79 30.06Q125.14 31.19 123.99 31.8Q122.85 32.41 121.19 32.41ZM139.55 38.32Q138.39 38.32 137.17 38.24Q135.96 38.15 134.94 38L134.94 34.09Q135.96 34.23 137.19 34.33Q138.42 34.44 139.44 34.44Q141.32 34.44 142.5 34Q143.67 33.57 144.22 32.68Q144.77 31.8 144.77 30.41L144.77 27.24L145.61 25.39Q145.55 27.51 144.79 29.01Q144.02 30.52 142.65 31.32Q141.29 32.12 139.41 32.12Q137.78 32.12 136.46 31.52Q135.14 30.93 134.22 29.85Q133.29 28.78 132.79 27.35Q132.3 25.91 132.3 24.23L132.3 23.56Q132.3 21.88 132.82 20.43Q133.35 18.98 134.33 17.91Q135.32 16.83 136.68 16.24Q138.04 15.64 139.7 15.64Q141.61 15.64 143.02 16.49Q144.42 17.33 145.24 18.95Q146.05 20.57 146.11 22.87L145.47 23.04L145.47 16.11L149.15 16.11L149.15 30.12Q149.15 33.04 148.11 34.84Q147.06 36.64 144.93 37.48Q142.8 38.32 139.55 38.32ZM140.86 28.2Q141.93 28.2 142.8 27.72Q143.67 27.24 144.18 26.35Q144.68 25.45 144.68 24.17L144.68 23.33Q144.68 22.08 144.15 21.23Q143.61 20.37 142.74 19.92Q141.87 19.47 140.89 19.47Q139.73 19.47 138.83 20.02Q137.93 20.57 137.43 21.56Q136.94 22.55 136.94 23.88Q136.94 25.24 137.45 26.21Q137.96 27.19 138.84 27.69Q139.73 28.2 140.86 28.2ZM159.87 32.55Q157.84 32.55 156.29 31.86Q154.74 31.16 153.71 29.98Q152.68 28.81 152.14 27.35Q151.6 25.88 151.6 24.34L151.6 23.76Q151.6 22.17 152.14 20.7Q152.68 19.24 153.69 18.08Q154.71 16.92 156.23 16.24Q157.75 15.56 159.69 15.56Q162.25 15.56 164 16.7Q165.76 17.85 166.68 19.69Q167.61 21.53 167.61 23.71L167.61 25.27L153.55 25.27L153.55 22.63L164.8 22.63L163.29 23.85Q163.29 22.43 162.88 21.42Q162.48 20.4 161.68 19.86Q160.88 19.33 159.69 19.33Q158.48 19.33 157.64 19.88Q156.79 20.43 156.36 21.49Q155.92 22.55 155.92 24.08Q155.92 25.5 156.33 26.56Q156.74 27.62 157.61 28.2Q158.48 28.78 159.87 28.78Q161.14 28.78 161.96 28.29Q162.77 27.8 163.06 27.07L167.32 27.07Q166.97 28.67 165.96 29.91Q164.94 31.16 163.41 31.86Q161.87 32.55 159.87 32.55Z"/>
  <path fill="#F7F5EF" d="M69.44 49.5L69.44 43.22L70.84 43.22L72.56 47.19L72.7 47.19L74.41 43.22L75.82 43.22L75.82 49.5L74.79 49.5L74.79 44.14L74.9 44.16L73.16 48.21L72.02 48.21L70.27 44.16L70.39 44.14L70.39 49.5ZM85.86 49.5L88.06 43.22L89.77 43.22L92.04 49.5L90.97 49.5L88.99 43.92L89.41 44.12L88.37 44.12L88.81 43.92L86.89 49.5ZM87.28 47.73L87.61 46.83L90.24 46.83L90.58 47.73ZM102.08 49.5L102.08 43.18L103.11 43.18L103.11 49.5ZM105.93 49.5L103.92 46.74L105.1 46.74L107.16 49.5ZM102.77 47.32L102.77 46.45L104.41 46.45Q104.78 46.45 105.04 46.3Q105.3 46.15 105.45 45.88Q105.59 45.61 105.59 45.27Q105.59 44.92 105.45 44.65Q105.3 44.38 105.04 44.23Q104.78 44.07 104.41 44.07L102.77 44.07L102.77 43.18L104.27 43.18Q104.99 43.18 105.52 43.4Q106.06 43.62 106.35 44.06Q106.64 44.5 106.64 45.18L106.64 45.32Q106.64 46.01 106.35 46.45Q106.05 46.89 105.52 47.1Q104.99 47.32 104.27 47.32ZM121.19 49.5L118.77 46.57L117.87 46.57L120.69 43.22L121.87 43.22L119.31 46.24L119.25 45.64L122.46 49.5ZM117.18 49.5L117.18 43.22L118.21 43.22L118.21 49.5ZM132.23 49.5L132.23 43.22L133.25 43.22L133.25 49.5ZM133.08 49.5L133.08 48.61L136.02 48.61L136.02 49.5ZM133.08 46.76L133.08 45.86L135.78 45.86L135.78 46.76ZM133.08 44.12L133.08 43.22L135.94 43.22L135.94 44.12ZM147.6 49.5L147.6 43.96L148.63 43.96L148.63 49.5ZM145.74 44.13L145.74 43.22L150.5 43.22L150.5 44.13Z"/>
</svg>
